<svg version="1.1" id="Layer_1" xmlns="http://www.w3.org/2000/svg" xmlns:xlink="http://www.w3.org/1999/xlink" x="0px" y="0px" viewBox="0 0 300 600" style="enable-background:new 0 0 300 600;" xml:space="preserve" width="100%" height="100%" preserveAspectRatio="none"><style type="text/css"> .st0{fill:#9D0000;} .st1{fill:#AC0600;} .st2{fill:#FFFFFF;} </style><g><g><rect x="104.6" y="488" class="st0" width="15.7" height="2.3"/><path d="M104.8,502.4c0.6-1.9,1.3-3.3,2.4-4.3c1.4-1.3,3.2-1.9,5.2-1.9c1.2,0,2.4,0.3,3.5,0.8s2,1.2,2.7,2c0.7,0.8,1.2,2,1.5,3.4 H104.8z M104.5,504.6H123c0-2.8-0.8-5.1-2.3-7c-2.1-2.7-4.9-4-8.4-4c-3.4,0-6.1,1.3-8.1,3.9c-1.7,2-2.4,4.3-2.4,6.9 c0,2.8,0.9,5.2,2.8,7.5c1.9,2.2,4.5,3.3,7.8,3.3c1.5,0,2.9-0.2,4.1-0.7c1.2-0.4,2.3-1.1,3.3-2c0.9-0.9,1.8-2,2.5-3.5l-2.2-1.2 c-0.8,1.3-1.5,2.3-2.3,2.9c-0.7,0.6-1.5,1.1-2.5,1.4c-1,0.3-2,0.6-3,0.6c-2.2,0-4-0.8-5.5-2.3C105.3,509,104.6,507,104.5,504.6 M132.4,496.4h4.2v-2.3h-4.2v-8h-2.7v8h-3.6v2.3h3.6v18.8h2.7V496.4z M155.1,515.2h2.7v-11.1c0-2.8-0.3-4.9-0.8-6.2 c-0.6-1.3-1.4-2.4-2.7-3.1s-2.5-1.2-4.1-1.2c-1.5,0-2.9,0.3-4.2,1c-1.3,0.7-2.5,1.8-3.5,3.1v-11.7h-2.7v29.1h2.7v-8.1 c0-2.7,0.1-4.6,0.4-5.6c0.4-1.5,1.2-2.9,2.5-3.9c1.3-1,2.7-1.6,4.3-1.6c1.4,0,2.5,0.3,3.4,1c0.9,0.7,1.4,1.7,1.8,3.1 c0.2,0.8,0.3,2.4,0.3,4.8V515.2L155.1,515.2L155.1,515.2z M179.7,504.5c0,1.5-0.4,2.9-1.1,4.1c-0.7,1.3-1.7,2.3-2.9,3s-2.5,1-4,1 c-1.4,0-2.8-0.3-4-1s-2.2-1.7-2.9-3c-0.7-1.3-1.1-2.7-1.1-4.1c0-2.3,0.8-4.3,2.4-5.9c1.6-1.7,3.5-2.4,5.6-2.4 c2.2,0,4.1,0.8,5.6,2.4C178.9,500.3,179.7,502.2,179.7,504.5 M179.4,512c2-2.2,3-4.6,3-7.6c0-2.9-0.9-5.4-2.8-7.5 c-2.1-2.3-4.7-3.4-7.8-3.4c-3.2,0-5.8,1.2-7.9,3.5c-1.9,2.1-2.8,4.6-2.8,7.4c0,2.9,1,5.4,3,7.6c2,2.2,4.6,3.2,7.7,3.2 C174.8,515.2,177.4,514.2,179.4,512 M196.1,498.2l1.7-1.8c-1.9-1.9-3.8-2.8-5.7-2.8c-1.6,0-3,0.5-4,1.5c-1,1-1.6,2.3-1.6,3.9 c0,1.2,0.3,2.3,1,3.2c0.7,0.9,1.9,1.9,3.8,2.8c1.7,0.9,2.8,1.6,3.3,2.2c0.5,0.6,0.7,1.3,0.7,2c0,0.9-0.4,1.7-1.1,2.4 c-0.7,0.7-1.7,1-2.7,1c-1.5,0-2.9-0.8-4.3-2.3l-1.7,1.9c0.7,0.9,1.6,1.6,2.7,2.2c1,0.5,2.2,0.8,3.4,0.8c1.8,0,3.3-0.6,4.4-1.8 c1.2-1.2,1.8-2.6,1.8-4.3c0-1.2-0.3-2.3-1-3.3c-0.7-0.9-2-1.9-4-2.9c-1.6-0.8-2.7-1.5-3.2-2.2c-0.5-0.6-0.8-1.3-0.8-1.9 c0-0.8,0.3-1.4,0.9-2c0.6-0.6,1.3-0.8,2.2-0.8C193.3,496.1,194.7,496.8,196.1,498.2"/><path d="M193.3,526.7c1.2,0,1.9-0.6,1.9-1.5c0-0.9-0.6-1.3-1.5-1.7c-0.8-0.3-1.1-0.6-1.1-0.9c0-0.4,0.4-0.7,1-0.7 c0.5,0,1,0.2,1.3,0.3v-0.9c-0.3-0.1-0.8-0.3-1.4-0.3c-1.1,0-1.9,0.6-1.9,1.5c0,0.9,0.5,1.3,1.5,1.7c0.8,0.3,1.2,0.5,1.2,0.9 c0,0.3-0.2,0.5-0.6,0.6c-0.2,0.1-0.3,0.1-0.6,0.1c-0.6,0-1-0.2-1.4-0.4v0.9C192.1,526.5,192.7,526.7,193.3,526.7 M189.7,526.5 v-0.8h-2.5v-1.5h2.1v-0.8h-2.1V522h2.4v-0.8h-3.4v5.4L189.7,526.5L189.7,526.5L189.7,526.5z M183.6,521.2h-0.9v3.4 c0,0.8-0.4,1.2-1.2,1.2c-0.8,0-1.2-0.4-1.2-1.2v-3.4h-0.9v3.5c0,1.3,0.8,2,2.2,2c1.4,0,2.2-0.8,2.2-2V521.2L183.6,521.2z M172.2,523.9c0-1.1,0.8-1.9,1.8-1.9s1.8,0.8,1.8,1.9c0,1.1-0.8,1.9-1.8,1.9C173,525.8,172.2,524.9,172.2,523.9 M171.3,523.9 c0,1.5,1,2.7,2.5,2.8c0.7,1,1.9,1.6,3.1,1.6c0.3,0,0.7-0.1,0.9-0.1v-0.8c-0.2,0.1-0.6,0.1-0.8,0.1c-0.7,0-1.5-0.3-2.2-0.8 c1.2-0.3,2.1-1.4,2.1-2.7c0-1.6-1.2-2.8-2.8-2.8C172.5,521.1,171.3,522.3,171.3,523.9 M168.8,521.2h-0.9v5.4h0.9V521.2z M165.7,522v-0.8h-4.1v0.8h1.6v4.6h0.9V522H165.7z M159.6,521.2h-0.9v3.4c0,0.8-0.4,1.2-1.2,1.2c-0.8,0-1.2-0.4-1.2-1.2v-3.4h-0.9 v3.5c0,1.3,0.8,2,2.2,2c1.4,0,2.2-0.8,2.2-2V521.2L159.6,521.2z M148.3,523.9c0-1.1,0.8-1.9,1.9-1.9c1.1,0,1.8,0.8,1.8,1.9 c0,1.1-0.8,1.9-1.8,1.9C149.2,525.8,148.3,524.9,148.3,523.9 M147.4,523.9c0,1.6,1.2,2.8,2.8,2.8s2.8-1.2,2.8-2.8 s-1.2-2.8-2.8-2.8S147.4,522.3,147.4,523.9 M142.4,524.1h1.1c0.5,0,0.8,0.3,0.8,0.8c0,0.5-0.4,0.8-0.9,0.8h-1V524.1L142.4,524.1 L142.4,524.1z M142.4,523.4v-1.5h0.9c0.6,0,0.9,0.3,0.9,0.8c0,0.4-0.2,0.6-0.4,0.7c-0.2,0-0.3,0-0.4,0H142.4L142.4,523.4z M144.4,523.7c0.4-0.2,0.7-0.6,0.7-1c0-1-0.8-1.5-1.9-1.5h-1.7v5.4h1.9c1.2,0,1.9-0.6,1.9-1.5C145.4,524.4,145,523.9,144.4,523.7 M136,526.5v-5.4h-0.9v2.3h-2.4v-2.3h-0.9v5.4h0.9v-2.3h2.4v2.3C135.1,526.5,136,526.5,136,526.5z M129.3,521.5 c-0.2-0.1-0.8-0.4-1.6-0.4c-1.7,0-2.9,1.2-2.9,2.8s1.2,2.8,2.8,2.8c0.8,0,1.4-0.2,1.7-0.4v-0.9c-0.3,0.2-0.9,0.4-1.6,0.4 c-1.2,0-1.9-0.8-1.9-1.9c0-1.1,0.8-1.9,1.9-1.9c0.7,0,1.2,0.2,1.5,0.4L129.3,521.5L129.3,521.5L129.3,521.5z M123.2,522v-0.8h-4.1 v0.8h1.6v4.6h0.9V522H123.2z M114.9,524.8c0.3-0.7,0.6-1.3,0.8-1.9c0.2,0.6,0.5,1.2,0.8,1.9H114.9z M113,526.5h1l0.5-1h2.2l0.5,1 h1l-2.5-5.5h-0.1L113,526.5z M104.8,521.2l2.3,5.5h0.1l1.1-2.7l0.3-0.7c0.1,0.2,0.2,0.5,0.3,0.7l1.1,2.7h0.1l2.3-5.5h-1 c-0.4,1-1,2.7-1.3,3.4c-0.3-0.8-0.9-2.2-1.4-3.4h-0.1l-0.6,1.4l-0.3,0.8c-0.2,0.4-0.4,0.9-0.5,1.2c-0.1-0.4-0.3-0.9-0.5-1.4 l-0.8-2L104.8,521.2L104.8,521.2z"/></g><rect x="100.9" y="536.8" class="st1" width="97.9" height="29.9"/><g><path class="st2" d="M113.8,555.9V554c0.6,0.3,1.4,0.6,2.2,0.6c0.3,0,0.6,0,0.8,0c0.7-0.1,1.1-0.4,1.1-0.8c0-0.6-0.5-0.9-1.8-1.3 c-1.6-0.6-2.5-1.2-2.5-2.8c0-1.6,1.3-2.6,3.2-2.6c0.9,0,1.8,0.2,2.3,0.4v1.8c-0.5-0.3-1.4-0.5-2.2-0.5c-0.9,0-1.5,0.4-1.5,0.9 c0,0.5,0.5,0.9,1.7,1.3c1.6,0.6,2.5,1.3,2.5,2.8c0,1.6-1.2,2.6-3.3,2.6C115.5,556.4,114.5,556.2,113.8,555.9z"/><path class="st2" d="M127.3,556.2v-3.7h-3.7v3.7h-1.9v-8.9h1.9v3.6h3.7v-3.6h1.9v8.9H127.3z"/><path class="st2" d="M135.8,547.2c2.7,0,4.6,2,4.6,4.6c0,2.6-2,4.6-4.6,4.6c-2.7,0-4.6-2-4.6-4.6 C131.1,549.2,133.1,547.2,135.8,547.2z M135.8,554.6c1.6,0,2.7-1.3,2.7-2.9c0-1.6-1.1-2.9-2.7-2.9c-1.6,0-2.7,1.3-2.7,2.9 C133,553.4,134.2,554.6,135.8,554.6z"/><path class="st2" d="M144.3,553.2v3h-1.9v-8.9h2.9c2,0,3.4,1,3.4,2.9s-1.4,2.9-3.4,2.9H144.3z M144.3,548.9v2.7h1.1 c0.8,0,1.4-0.4,1.4-1.3s-0.6-1.3-1.4-1.3H144.3z"/><path class="st2" d="M161.6,556.3l-4.9-4.7l-0.6-0.5v5h-1.9v-9h0.1l4.9,4.7l0.6,0.5v-5h1.9L161.6,556.3L161.6,556.3z"/><path class="st2" d="M168.3,547.2c2.7,0,4.6,2,4.6,4.6c0,2.6-2,4.6-4.6,4.6c-2.7,0-4.6-2-4.6-4.6 C163.6,549.2,165.6,547.2,168.3,547.2z M168.3,554.6c1.6,0,2.7-1.3,2.7-2.9c0-1.6-1.1-2.9-2.7-2.9c-1.6,0-2.7,1.3-2.7,2.9 C165.5,553.4,166.7,554.6,168.3,554.6z"/><path class="st2" d="M175.5,547.3l1.2,3c0.3,0.7,0.6,1.4,0.7,2c0.1-0.3,0.4-1,0.6-1.6l0.5-1.1l1-2.3h0.1c0.8,1.7,1.7,3.7,2.1,5 c0.3-0.8,1.4-3.7,2-5h2.1l-4,9h-0.1l-1.7-4c-0.2-0.3-0.3-0.7-0.5-1.1c-0.1,0.3-0.3,0.7-0.4,1.1l-1.8,4h-0.1l-4-9H175.5z"/></g></g></svg>